<svg id="icons" enable-background="new 0 0 64 64" height="512" viewBox="0 0 64 64" width="512" xmlns="http://www.w3.org/2000/svg"><g><path d="m45 1h-26-4v31 31h4 26 4v-31-31z" fill="#fc6e51"/><path d="m49.002.5h-34.004c-.276 0-.5.224-.5.5v62c0 .276.224.5.5.5h34.004c.276 0 .5-.224.5-.5v-62c0-.276-.224-.5-.5-.5zm-4.5 17v29h-12.002v-29zm-13.002 29h-12.001v-29h12.001zm-12.001 1h25.003v15h-25.003zm25.003-31h-25.003v-15h25.003zm-29.004-15h3.001v15.495c0 .002-.001.003-.001.005s.001.003.001.005v29.99c0 .002-.001.003-.001.005s.001.003.001.005v15.495h-3.001zm33.004 61h-3v-61h3z" fill="#e6e9ed"/><path d="m49.876 33h-35.752c-.553 0-1-.447-1-1s.447-1 1-1h35.752c.553 0 1 .447 1 1s-.447 1-1 1z" fill="#f5f7fa"/></g></svg>